<svg width="17" height="15" viewBox="0 0 17 15" fill="none" xmlns="http://www.w3.org/2000/svg">
<path d="M5.8 0.234997L7.065 2.655C5.745 3.24166 4.865 3.90166 4.425 4.635C3.985 5.33167 3.765 6.37667 3.765 7.77V7.935H7.285V14.425H0.85V8.32C0.85 6.08333 1.19833 4.37833 1.895 3.205C2.62833 1.995 3.93 1.005 5.8 0.234997ZM14.82 0.234997L16.085 2.655C14.765 3.24166 13.885 3.90166 13.445 4.635C13.005 5.33167 12.785 6.37667 12.785 7.77V7.935H16.305V14.425H9.87V8.32C9.87 6.08333 10.2183 4.37833 10.915 3.205C11.6483 1.995 12.95 1.005 14.82 0.234997Z" fill="#CBCBCB"/>
</svg>
