<svg width="17" height="17" viewBox="0 0 17 17" fill="none" xmlns="http://www.w3.org/2000/svg">
<path fill-rule="evenodd" clip-rule="evenodd" d="M2.20294 6.90555V13.5398C2.20294 13.9155 2.3522 14.2759 2.61787 14.5415C2.88355 14.8072 3.24389 14.9565 3.61961 14.9565H14.0626C14.4383 14.9565 14.7986 14.8072 15.0643 14.5415C15.33 14.2759 15.4792 13.9155 15.4792 13.5398V6.90555C15.4794 6.68045 15.4258 6.45855 15.3231 6.25826C15.2204 6.05796 15.0714 5.88504 14.8885 5.7538L9.2544 1.71276C9.13403 1.62638 8.9896 1.57993 8.84144 1.57993C8.69329 1.57993 8.54886 1.62638 8.42848 1.71276L2.7944 5.7538C2.61128 5.88503 2.4621 6.05804 2.35924 6.25847C2.25637 6.4589 2.20279 6.68097 2.20294 6.90626V6.90555Z" stroke="white"/>
<path d="M15.4701 6.53864C15.4478 6.7354 15.3846 6.92531 15.2844 7.09611C15.1842 7.26692 15.0494 7.41483 14.8885 7.53031L13.2955 8.67356L12.7826 9.04189L9.25372 11.5728C9.13335 11.6591 8.98892 11.7056 8.84076 11.7056C8.69261 11.7056 8.54818 11.6591 8.42781 11.5728L2.79372 7.53172C2.63787 7.41993 2.50635 7.27766 2.40711 7.11354C2.30788 6.94941 2.24301 6.76684 2.21643 6.57689" stroke="white"/>
</svg>
