<svg width="17" height="16" viewBox="0 0 17 16" fill="none" xmlns="http://www.w3.org/2000/svg">
<path d="M2.335 15.14L1.07 12.72C2.39 12.1333 3.27 11.4917 3.71 10.795C4.15 10.0617 4.37 8.99833 4.37 7.605V7.44H0.85V0.949998H7.285V7.055C7.285 9.29166 6.91833 11.015 6.185 12.225C5.48833 13.3983 4.205 14.37 2.335 15.14ZM11.355 15.14L10.09 12.72C11.41 12.1333 12.29 11.4917 12.73 10.795C13.17 10.0617 13.39 8.99833 13.39 7.605V7.44H9.87V0.949998H16.305V7.055C16.305 9.29166 15.9383 11.015 15.205 12.225C14.5083 13.3983 13.225 14.37 11.355 15.14Z" fill="#CBCBCB"/>
</svg>
